<svg xmlns="http://www.w3.org/2000/svg" width="256" height="256" viewBox="0 0 100 100"><rect width="100" height="100" rx="20" fill="#334155" data-darkreader-inline-fill="" style="--darkreader-inline-fill: #252930;"></rect><path fill="#fff" d="M11.71 77.27L11.71 77.27Q10.00 77.27 8.87 76.19Q7.75 75.11 7.75 73.31L7.75 73.31L7.75 22.73Q8.20 22.55 9.14 22.32Q10.09 22.10 11.17 22.10L11.17 22.10Q15.13 22.10 15.13 25.43L15.13 25.43L15.13 70.97L40.96 70.97Q41.95 71.96 41.95 73.94L41.95 73.94Q41.95 75.47 41.14 76.37Q40.33 77.27 38.98 77.27L38.98 77.27L11.71 77.27ZM83.16 74.93L60.22 51.17L60.22 77.18Q59.68 77.36 58.78 77.58Q57.88 77.81 56.80 77.81L56.80 77.81Q52.84 77.81 52.84 74.48L52.84 74.48L52.84 22.73Q53.29 22.55 54.23 22.32Q55.18 22.10 56.26 22.10L56.26 22.10Q60.22 22.10 60.22 25.43L60.22 25.43L60.22 47.84L84.97 22.19Q87.31 22.28 88.47 23.36Q89.65 24.44 89.65 25.88L89.65 25.88Q89.65 27.05 89.02 28.04Q88.38 29.03 87.22 30.20L87.22 30.20L67.78 49.28Q75.97 57.29 81.95 63.54Q87.94 69.80 92.25 73.67L92.25 73.67Q92.08 75.65 91.04 76.77Q90.00 77.90 88.38 77.90L88.38 77.90Q86.86 77.90 85.64 77.05Q84.43 76.19 83.16 74.93L83.16 74.93Z" data-darkreader-inline-fill="" style="--darkreader-inline-fill: #141515;"></path></svg>